<svg xmlns="http://www.w3.org/2000/svg" xmlns:xlink="http://www.w3.org/1999/xlink" version="1.1" x="0px" y="0px" viewBox="0 0 100 125" enable-background="new 0 0 100 100" xml:space="preserve"><g><g><g><path fill="none" d="M41.845,16.468c0.223-0.91-3.043-1.739-3.847-1.956c-1.304-0.353-2.924-0.79-4.245-0.274     c-0.755,0.296-1.172,0.867-1.614,1.402c3.134,0.394,6.254,1.306,9.273,2.199C41.497,17.397,41.726,16.956,41.845,16.468z"/><path fill="none" d="M39.24,44.834c-0.51,0.263-1.038,0.775-1.589,0.987c-0.366,0.367-0.747,0.722-1.125,1.053     c-0.021,0.018-0.047,0.015-0.07,0.008c-0.121,0.136-0.245,0.276-0.361,0.404c-0.405,0.445-1.356,1.401-1.137,2.105     c0.287,0.922,1.079,0.369,1.544,0.025c1.375-1.017,2.74-2.124,3.951-3.333c0.185-0.186,0.422-0.383,0.554-0.614     C41.532,44.547,39.616,44.642,39.24,44.834z"/><path fill="none" d="M44.167,41.485c-0.465,0.384-0.879,1.141-0.819,1.653c0.085,0.722,0.85,0.832,1.406,0.626     c0.532-0.197,1.195-0.706,1.196-1.34C45.952,41.4,44.895,41.506,44.167,41.485z"/><path fill="none" d="M53.332,39.295c-7.704-3.118-17.995,0.468-19.9,9.304c-1.299,6.028,1.222,13.237,7.634,15.179     c6.75,2.046,16.69-0.912,18.672-8.531C61.417,48.797,58.49,42.83,53.332,39.295z M39.879,47.2     c-0.969,0.863-1.964,1.709-3.033,2.445c-0.62,0.426-1.051,0.827-1.774,0.425c-0.657-0.365-0.702-1.045-0.415-1.689     c0.554-1.244,1.594-2.345,2.767-3.174c0.294-0.451,0.937-0.787,1.627-0.937c0.034-0.015,0.067-0.034,0.101-0.048     c0.018-0.008,0.027,0.014,0.015,0.027c1.133-0.211,2.341,0.086,2.283,1.225C41.419,46.08,40.272,46.85,39.879,47.2z      M44.933,44.483c-0.988,0.496-2.213,0.042-2.409-1.105c-0.208-1.212,0.78-2.152,1.866-2.391c0.062-0.013,0.104,0.007,0.136,0.038     c0.8-0.182,1.737,0.404,1.882,1.235C46.572,43.198,45.697,44.099,44.933,44.483z"/><path fill="none" d="M77.133,28.419c-0.003-0.025-0.015-0.042-0.016-0.068c-0.032-1.472-0.447-2.978-0.449-4.451     c-4.442-1.044-8.66-2.892-13.137-3.891c-3.342-0.746-7.003-0.999-10.19-2.307c-0.777,0.783-1.849,1.245-2.815,1.782     c-0.275,0.153-0.613,0.381-0.975,0.61c5.194,1.379,10.407,2.692,15.554,4.232C68.531,25.35,72.857,26.654,77.133,28.419z"/><path fill="none" d="M60.868,25.12c-5.979-1.604-11.989-3.09-17.924-4.851c-6.011-1.784-12.378-3.936-18.729-3.271     c-0.304,0.06-0.606,0.09-0.892,0.086c-2.192,3.396-5.067,6.339-7.15,9.841c-2.381,4.002-4.513,8.183-5.951,12.626     c-2.799,8.663-3.967,17.78-2.031,26.728c3.34,3.596,8.455,4.711,13.126,5.943c5.553,1.465,10.795,3.767,16.219,5.635     c6.248,2.152,12.549,4.3,19.073,5.465c6.489,1.159,13.74,2.786,20.072,0.484c0.169-0.061,0.307-0.017,0.4,0.079     c4.658-6.482,9.464-12.193,12.393-19.871c2.64-6.919,4.779-14.612,2.389-21.811C84.107,32.525,72.878,28.342,60.868,25.12z      M12.318,53.698c-0.021,0.084-0.139,0.046-0.127-0.035c1.498-9.612,4.622-25.087,12.845-31.584     c3.96-3.129,9.12-2.102,13.701-1.08c7.429,1.657,14.864,3.791,22.274,5.604c0.248,0.061,0.198,0.481-0.061,0.451     c-5.475-0.625-10.892-1.595-16.396-1.983c-5.002-0.353-11.378-2.065-15.963-0.335C19.514,28.162,14.512,45.073,12.318,53.698z      M45.394,72.119c-10.566-0.482-20.859-9.679-19.551-20.945c1.459-12.571,15.836-23.791,28.223-17.778     c0.119,0.058,0.161,0.149,0.175,0.244c0.425,0.158,0.829,0.361,1.181,0.623c6.497,2.678,11.748,8.278,12.293,15.669     C68.578,61.632,57.088,72.654,45.394,72.119z M87.139,43.724c0.014,0.64-0.242,1.298-0.501,1.872     c-0.29,0.645-0.699,1.636-1.563,1.51c-1.906,1.593-4.605,0.966-6.843,0.277c-2.201-0.678-5.521-1.552-7.301-3.272     c-0.313,0.139-0.698-0.144-0.724-0.492c-0.076-1.008,0.582-2.207,0.906-3.137c0.147-0.425,0.309-1.138,0.632-1.465     c0.177-0.179,0.418-0.166,0.572-0.326c0.03-0.031,0.076-0.012,0.089,0.024c0.001,0.002,0.002,0.004,0.002,0.005     c0.02,0.051-0.052,0.084-0.087,0.051c0.074,0.071,0.129,0.15,0.171,0.235c2.203-0.487,5.167,0.262,7.194,0.788     c2.577,0.669,5.631,1.343,7.584,3.264C87.519,43.301,87.385,43.607,87.139,43.724z"/><path fill="none" d="M72.568,39.825c-0.076,0.473-0.284,0.981-0.411,1.396c-0.209,0.688-0.364,1.538-0.711,2.224     c2.125,0.174,4.422,1.609,6.367,2.214c2.326,0.723,4.589,0.872,6.976,1.026c0.005-0.711,0.762-2.151,1.325-3.055     c-2.634-0.528-5.259-1.743-7.864-2.407C76.458,40.764,74.277,40.643,72.568,39.825z"/><path fill="none" d="M48.42,33.476c-5.887-0.235-11.284,1.374-15.743,6.293c-3.892,4.293-6.599,10.038-5.248,15.96     c2.157,9.45,11.676,16.958,21.637,14.684c9.67-2.209,19.926-11.599,16.923-22.458C63.621,39.388,56.512,34.951,48.42,33.476z      M60.542,56.52c-2.957,7.779-13.349,12.187-21.032,8.384c-6.649-3.292-9.752-11.802-6.718-18.66     c4.053-9.162,16.97-13.278,24.247-5.505c0.087,0.092,0.101,0.19,0.078,0.276c0.143,0.167,0.281,0.335,0.405,0.497     c0.565,0.733,1.159,1.562,1.468,2.464C61.419,47.484,62.295,51.907,60.542,56.52z"/><path d="M44.554,25.072c5.504,0.389,10.921,1.359,16.396,1.983c0.259,0.03,0.309-0.391,0.061-0.451     c-7.41-1.813-14.845-3.947-22.274-5.604c-4.582-1.022-9.742-2.049-13.701,1.08c-8.223,6.497-11.346,21.972-12.845,31.584     c-0.013,0.081,0.105,0.119,0.127,0.035c2.193-8.625,7.195-25.536,16.273-28.961C33.176,23.007,39.552,24.719,44.554,25.072z"/><path d="M94.091,44.798c0.166-0.049,0.299-0.205,0.259-0.428c-1.335-7.328-8.414-12.122-15.948-15.412     c0.179-0.124,0.303-0.321,0.286-0.608c-0.094-1.54-0.266-3.329-1.11-4.682c0.038-0.167-0.01-0.357-0.187-0.483     c-3.504-2.466-7.592-3.633-11.702-4.698c-3.643-0.944-7.974-2.085-11.865-1.751c-0.04-0.034-0.087-0.06-0.144-0.061     c-1.447-0.033-2.657,0.897-3.865,1.588c-0.612,0.35-1.625,0.735-2.301,1.28c-1.538-0.416-3.076-0.834-4.606-1.278     c0.403-0.795,0.533-1.875,0.619-2.651c0.026-0.241-0.16-0.553-0.376-0.656c-2.676-1.274-5.626-2.689-8.665-2.353     c-1.376,0.152-3.523,1.379-3.793,2.905c-1.55-0.109-3.099-0.089-4.637,0.163c-0.011-0.011-0.006-0.032-0.022-0.039     c-0.563-0.262-1.334-0.181-1.956,0.13c-0.026-0.108-0.152-0.185-0.268-0.122c-7.926,4.327-12.6,15.301-15.465,23.39     c-2.892,8.164-5.492,20.37-0.648,28.173c0.058,0.094,0.139,0.137,0.224,0.153c1.671,2.559,4.515,3.992,7.508,5.164     c6.42,2.515,13.209,4.164,19.677,6.666C43.2,82.322,51.399,84.902,60,86.18c3.944,0.586,9.207,2.007,13.31,0.778     c1.535,0.164,3.418-0.537,4.456-1.735c7.313-4.83,11.568-14.051,14.526-21.968C94.281,57.935,96.179,50.553,94.091,44.798z      M50.527,19.483c0.967-0.537,2.038-0.999,2.815-1.782c3.187,1.308,6.848,1.562,10.19,2.307c4.477,0.999,8.695,2.847,13.137,3.891     c0.001,1.473,0.416,2.98,0.449,4.451c0.001,0.026,0.013,0.043,0.016,0.068c-4.276-1.765-8.602-3.069-12.028-4.094     c-5.148-1.541-10.36-2.853-15.554-4.232C49.913,19.863,50.251,19.636,50.527,19.483z M33.753,14.239     c1.321-0.516,2.941-0.08,4.245,0.274c0.804,0.217,4.07,1.046,3.847,1.956c-0.119,0.488-0.348,0.929-0.432,1.371     c-3.019-0.893-6.139-1.805-9.273-2.199C32.581,15.105,32.998,14.534,33.753,14.239z M89.475,64.013     c-2.929,7.679-7.735,13.389-12.393,19.871c-0.093-0.095-0.231-0.14-0.4-0.079c-6.332,2.302-13.583,0.675-20.072-0.484     c-6.524-1.165-12.826-3.312-19.073-5.465c-5.424-1.868-10.666-4.17-16.219-5.635c-4.671-1.232-9.786-2.347-13.126-5.943     c-1.937-8.947-0.768-18.065,2.031-26.728c1.437-4.443,3.57-8.625,5.951-12.626c2.083-3.502,4.958-6.445,7.15-9.841     c0.286,0.004,0.587-0.026,0.892-0.086c6.351-0.665,12.717,1.487,18.729,3.271c5.935,1.762,11.946,3.247,17.924,4.851     c12.01,3.222,23.239,7.405,30.995,17.082C94.254,49.401,92.115,57.093,89.475,64.013z"/><path d="M79.688,39.794c-2.027-0.526-4.99-1.275-7.194-0.788c-0.042-0.085-0.098-0.164-0.171-0.235     c0.035,0.034,0.106,0.001,0.087-0.051c0-0.002-0.001-0.004-0.002-0.005c-0.013-0.036-0.058-0.055-0.089-0.024     c-0.154,0.16-0.396,0.147-0.572,0.326c-0.323,0.327-0.484,1.04-0.632,1.465c-0.324,0.93-0.982,2.129-0.906,3.137     c0.026,0.348,0.411,0.631,0.724,0.492c1.78,1.72,5.1,2.593,7.301,3.272c2.238,0.689,4.936,1.316,6.843-0.277     c0.864,0.126,1.272-0.865,1.563-1.51c0.259-0.573,0.515-1.232,0.501-1.872c0.246-0.117,0.379-0.423,0.132-0.666     C85.319,41.136,82.265,40.462,79.688,39.794z M84.789,46.684c-2.386-0.153-4.65-0.302-6.976-1.026     c-1.945-0.605-4.242-2.041-6.367-2.214c0.347-0.685,0.502-1.536,0.711-2.224c0.127-0.415,0.335-0.923,0.411-1.396     c1.709,0.818,3.89,0.939,5.682,1.396c2.605,0.665,5.23,1.879,7.864,2.407C85.55,44.534,84.794,45.973,84.789,46.684z"/><path d="M55.422,34.264c-0.352-0.262-0.756-0.465-1.181-0.623c-0.014-0.095-0.055-0.186-0.175-0.244     c-12.387-6.013-26.764,5.207-28.223,17.778c-1.308,11.267,8.985,20.463,19.551,20.945c11.694,0.534,23.184-10.487,22.321-22.187     C67.17,42.541,61.918,36.942,55.422,34.264z M49.066,70.413c-9.961,2.275-19.481-5.233-21.637-14.684     c-1.35-5.922,1.357-11.666,5.248-15.96c4.458-4.919,9.856-6.528,15.743-6.293c8.092,1.475,15.201,5.912,17.569,14.478     C68.992,58.814,58.735,68.204,49.066,70.413z"/><path d="M57.522,41.511c-0.124-0.162-0.262-0.329-0.405-0.497c0.023-0.086,0.009-0.184-0.078-0.276     c-7.277-7.773-20.194-3.656-24.247,5.505c-3.034,6.858,0.069,15.368,6.718,18.66c7.684,3.803,18.075-0.605,21.032-8.384     c1.753-4.613,0.877-9.036-1.552-12.545C58.68,43.074,58.086,42.245,57.522,41.511z M59.738,55.248     c-1.982,7.619-11.922,10.576-18.672,8.531c-6.411-1.942-8.933-9.152-7.634-15.179c1.905-8.836,12.196-12.422,19.9-9.304     C58.49,42.83,61.417,48.797,59.738,55.248z"/><path d="M44.526,41.025c-0.032-0.031-0.075-0.051-0.136-0.038c-1.086,0.238-2.074,1.179-1.866,2.391     c0.196,1.147,1.421,1.6,2.409,1.105c0.764-0.384,1.64-1.285,1.476-2.222C46.263,41.429,45.326,40.843,44.526,41.025z      M44.754,43.764c-0.556,0.205-1.321,0.096-1.406-0.626c-0.06-0.512,0.354-1.269,0.819-1.653c0.727,0.021,1.785-0.085,1.783,0.94     C45.949,43.058,45.286,43.568,44.754,43.764z"/><path d="M39.166,44.248c0.012-0.013,0.003-0.035-0.015-0.027c-0.034,0.015-0.067,0.034-0.101,0.048     c-0.689,0.151-1.333,0.486-1.627,0.937c-1.173,0.829-2.213,1.931-2.767,3.174c-0.287,0.644-0.242,1.325,0.415,1.689     c0.723,0.402,1.154,0.001,1.774-0.425c1.07-0.736,2.065-1.582,3.033-2.445c0.392-0.349,1.54-1.119,1.57-1.727     C41.507,44.333,40.3,44.037,39.166,44.248z M41.007,45.469c-0.132,0.231-0.368,0.428-0.554,0.614     c-1.212,1.209-2.576,2.316-3.951,3.333c-0.465,0.344-1.257,0.897-1.544-0.025c-0.219-0.704,0.731-1.66,1.137-2.105     c0.116-0.128,0.239-0.268,0.361-0.404c0.024,0.008,0.05,0.011,0.07-0.008c0.378-0.331,0.759-0.687,1.125-1.053     c0.551-0.212,1.078-0.724,1.589-0.987C39.616,44.642,41.532,44.547,41.007,45.469z"/></g></g></g><text x="0" y="115" fill="#000000" font-size="5px" font-weight="bold" font-family="'Helvetica Neue', Helvetica, Arial-Unicode, Arial, Sans-serif">Created by Vladimir Belochkin</text><text x="0" y="120" fill="#000000" font-size="5px" font-weight="bold" font-family="'Helvetica Neue', Helvetica, Arial-Unicode, Arial, Sans-serif">from the Noun Project</text></svg>