<svg xmlns="http://www.w3.org/2000/svg" xmlns:xlink="http://www.w3.org/1999/xlink" version="1.1" x="0px" y="0px" viewBox="0 0 100 125" enable-background="new 0 0 100 100" xml:space="preserve"><path d="M64.342,42.482V20.761c3.623-0.486,6.429-3.59,6.429-7.344c0-4.09-3.327-7.418-7.418-7.418H36.648  c-4.09,0-7.418,3.327-7.418,7.418c0,3.754,2.805,6.858,6.429,7.344v21.721c-8.876,5.127-14.341,14.534-14.341,24.836  C21.319,83.133,34.186,96,50,96s28.681-12.867,28.681-28.681C78.682,57.016,73.217,47.609,64.342,42.482z M33.188,13.418  c0-1.908,1.553-3.462,3.462-3.462h26.703c1.908,0,3.462,1.553,3.462,3.462s-1.553,3.462-3.462,3.462h-0.989H37.638h-0.989  C34.741,16.879,33.188,15.326,33.188,13.418z M50,92.044c-13.634,0-24.725-11.092-24.725-24.725c0-9.229,5.088-17.627,13.28-21.916  c0.652-0.341,1.06-1.016,1.06-1.752V20.835h20.769v22.816c0,0.736,0.409,1.411,1.06,1.752c8.192,4.288,13.28,12.686,13.28,21.916  C74.725,80.952,63.634,92.044,50,92.044z"/><path d="M66.104,55.086c-0.219,3.266-1.1,6.39-3.515,8.37c-4.534,3.717-12.351,2.542-17.724,2.98  c-5.597,0.456-11.637,2.041-14.541,5.701c-0.572,0.721-0.669,1.711-0.348,2.574c3.753,10.084,14.9,15.983,25.852,12.498  c8.623-2.743,14.522-11.001,14.376-20.048C70.13,62.518,68.573,58.411,66.104,55.086z"/><circle cx="53.06" cy="59.18" r="3.06"/><circle cx="50.612" cy="44.919" r="3.06"/><circle cx="39.895" cy="56.12" r="3.06"/></svg>